<mxfile host="app.diagrams.net" modified="2023-10-24T16:06:28.640Z" agent="Mozilla/5.0 (Windows NT 10.0; Win64; x64) AppleWebKit/537.36 (KHTML, like Gecko) Chrome/118.0.0.0 Safari/537.36" version="22.0.6" etag="ykcY5ZKANhonZMNR1AL1" type="github">
  <diagram name="Sayfa -1" id="Isb7qJddkY5wMqNteZFV">
    <mxGraphModel>
      <root>
        <mxCell id="0" />
        <mxCell id="1" parent="0" />
      </root>
    </mxGraphModel>
  </diagram>
</mxfile>
